<svg width="74" height="73" viewBox="0 0 74 73" fill="none" xmlns="http://www.w3.org/2000/svg">
<path d="M37 0C16.5686 0 0 16.3447 0 36.5C0 56.6553 16.5686 73 37 73C57.4314 73 74 56.6553 74 36.5C74 16.3447 57.4314 0 37 0ZM53.8938 28.4588C53.9102 28.818 53.9181 29.1789 53.9181 29.5415C53.9181 40.6119 45.376 53.3777 29.7548 53.3782C24.9587 53.3782 20.4958 51.9914 16.7374 49.615C17.4019 49.6924 18.0783 49.7308 18.7631 49.7308C22.7422 49.7308 26.4041 48.3919 29.3111 46.1446C25.5933 46.0767 22.4588 43.6545 21.3771 40.3257C21.8948 40.4237 22.4272 40.4771 22.9731 40.4771C23.7483 40.4771 24.4992 40.3741 25.2128 40.182C21.3268 39.4145 18.3995 36.0266 18.3995 31.9698C18.3995 31.9319 18.3995 31.898 18.4006 31.8629C19.545 32.4905 20.8537 32.8682 22.2471 32.9105C19.9668 31.4095 18.4678 28.8437 18.4678 25.937C18.4678 24.402 18.8884 22.964 19.6179 21.7259C23.8059 26.7952 30.0648 30.1291 37.1231 30.4794C36.9774 29.8657 36.9023 29.2263 36.9023 28.5691C36.9023 23.9442 40.7059 20.1921 45.3958 20.1921C47.8387 20.1921 50.0451 21.2107 51.5948 22.8392C53.5296 22.4627 55.3464 21.7654 56.9877 20.8058C56.3525 22.7613 55.0066 24.402 53.253 25.4396C54.971 25.2369 56.6083 24.7874 58.1298 24.1202C56.9933 25.8005 55.5519 27.2764 53.8938 28.4588Z" fill="white"/>
</svg>
