<svg width="74" height="74" viewBox="0 0 74 74" fill="none" xmlns="http://www.w3.org/2000/svg">
<path d="M37 0C16.5662 0 0 16.5654 0 37C0 57.4346 16.5662 74 37 74C57.4338 74 74 57.4346 74 37C74 16.5654 57.4338 0 37 0ZM55.7684 41.0017C57.4929 42.6861 59.3173 44.2713 60.8655 46.1298C61.5513 46.952 62.1978 47.8021 62.6899 48.7582C63.3924 50.1217 62.7581 51.6168 61.5377 51.6978L53.9575 51.6963C51.9999 51.8583 50.4419 51.0687 49.1284 49.7303C48.0799 48.6636 47.1071 47.5243 46.0973 46.4213C45.6847 45.9686 45.2501 45.5424 44.7323 45.207C43.699 44.5348 42.8011 44.7407 42.2091 45.8202C41.6058 46.9186 41.468 48.136 41.4105 49.3586C41.328 51.1459 40.789 51.613 38.9955 51.697C35.1634 51.8765 31.5274 51.2951 28.148 49.3631C25.1668 47.659 22.8594 45.2539 20.8487 42.5309C16.9333 37.2226 13.9347 31.3964 11.2404 25.403C10.634 24.0532 11.0777 23.331 12.5668 23.303C15.0407 23.2553 17.5147 23.2614 19.9887 23.3007C20.9956 23.3166 21.6617 23.8927 22.0486 24.8428C23.3855 28.1321 25.0245 31.2617 27.0783 34.1642C27.6257 34.9371 28.1843 35.7077 28.98 36.2536C29.8581 36.8562 30.5274 36.6571 30.9415 35.6767C31.2064 35.0537 31.3207 34.3875 31.3783 33.7198C31.5751 31.4328 31.5986 29.1465 31.2579 26.8686C31.0459 25.4431 30.2442 24.5226 28.8233 24.2531C28.0996 24.116 28.2055 23.8481 28.5576 23.4347C29.1685 22.7201 29.7408 22.278 30.8847 22.278L39.449 22.2765C40.7988 22.5414 41.1016 23.147 41.2848 24.5067L41.2924 34.0241C41.2765 34.5502 41.5566 36.1097 42.5014 36.4542C43.2584 36.704 43.758 36.0969 44.2107 35.6177C46.2646 33.4382 47.7279 30.8658 49.0383 28.2033C49.6167 27.0291 50.1156 25.8141 50.6001 24.5968C50.9604 23.6967 51.5207 23.2538 52.5366 23.2689L60.7837 23.2788C61.0267 23.2788 61.2735 23.281 61.5143 23.3227C62.9042 23.5604 63.285 24.1584 62.855 25.5143C62.1782 27.6446 60.8632 29.4191 59.5778 31.1981C58.2 33.1028 56.7306 34.9409 55.3664 36.8539C54.1127 38.6026 54.2119 39.4831 55.7684 41.0017Z" fill="white"/>
</svg>
