<svg width="45" height="44" viewBox="0 0 45 44" fill="none" xmlns="http://www.w3.org/2000/svg">
<path d="M4.83929 17.3557V42.439H18.4048M4.83929 17.3557H18.4048M4.83929 17.3557H1V11.1918H18.4048M39.9048 17.3557V42.439H25.5714M39.9048 17.3557H25.5714M39.9048 17.3557H44V11.1918H34.5753H25.5714M25.5714 17.3557V11.1918M25.5714 17.3557V42.439M18.4048 17.3557V11.1918M18.4048 17.3557V42.439M18.4048 11.1918V10.6027H21.6164H25.5714V11.1918M18.4048 42.439H25.5714" stroke="white" stroke-width="2" stroke-linecap="round"/>
<path d="M31.8826 10.5533C28.2993 11.3211 25.7397 10.5533 25.7397 10.5533C25.7397 10.5533 28.2993 4.92238 32.3945 2.87476C36.4897 0.827138 36.7457 5.43434 36.4897 6.45809C36.2338 7.48184 35.4659 9.78553 31.8826 10.5533Z" stroke="white" stroke-width="2" stroke-linecap="round"/>
<path d="M11.7585 10.7107C15.4882 11.4933 18.1523 10.7107 18.1523 10.7107C18.1523 10.7107 15.4882 4.97165 11.2257 2.88472C6.96321 0.79778 6.69681 5.49344 6.96321 6.53685C7.22962 7.58026 8.02884 9.92818 11.7585 10.7107Z" stroke="white" stroke-width="2" stroke-linecap="round"/>
<path d="M17.4932 3.32735L19.0289 5.88692" stroke="white"/>
<path d="M26.1479 3.07145L24.8581 5.76332" stroke="white"/>
<path d="M22.1003 0L22.1003 5.22482" stroke="white"/>
</svg>
